<svg width="20" height="12" viewBox="0 0 20 12" fill="none" xmlns="http://www.w3.org/2000/svg">
<path d="M18.4922 0.773438C18.4219 1.125 18.1406 1.69922 17.6484 2.49609C17.1797 3.29297 16.7461 3.99609 16.3477 4.60547C15.9492 5.19141 15.7383 5.49609 15.7148 5.51953C15.5742 5.73047 15.5039 5.88281 15.5039 5.97656C15.5039 6.07031 15.5742 6.23438 15.7148 6.46875C15.7148 6.46875 15.7852 6.55078 15.9258 6.71484C16.0898 6.87891 16.2773 7.06641 16.4883 7.27734C16.6992 7.48828 16.9336 7.73438 17.1914 8.01562C17.4492 8.29688 17.6836 8.57812 17.8945 8.85938C18.1289 9.11719 18.3281 9.38672 18.4922 9.66797C18.6797 9.94922 18.8086 10.1836 18.8789 10.3711C19.043 10.957 18.8086 11.25 18.1758 11.25H16.1016C15.9375 11.25 15.7969 11.2266 15.6797 11.1797C15.5625 11.1328 15.4336 11.0508 15.293 10.9336C15.1523 10.8164 15.0234 10.6875 14.9062 10.5469C14.7891 10.4062 14.6133 10.207 14.3789 9.94922C14.1445 9.69141 13.9102 9.44531 13.6758 9.21094C12.7383 8.32031 12.0469 7.875 11.6016 7.875C11.3203 7.875 11.1562 7.95703 11.1094 8.12109C11.0625 8.28516 11.0391 8.75391 11.0391 9.52734C11.0625 9.90234 11.0742 10.207 11.0742 10.4414C11.0742 10.7227 10.9805 10.9336 10.793 11.0742C10.6055 11.1914 10.1953 11.25 9.5625 11.25C8.46094 11.25 7.34766 10.9219 6.22266 10.2656C5.09766 9.60938 4.11328 8.67188 3.26953 7.45312C2.47266 6.375 1.80469 5.30859 1.26562 4.25391C0.75 3.17578 0.410156 2.35547 0.246094 1.79297C0.0820312 1.23047 0 0.832031 0 0.597656C0 0.199219 0.234375 0 0.703125 0H2.77734C3.03516 0 3.22266 0.0585938 3.33984 0.175781C3.48047 0.292969 3.59766 0.503906 3.69141 0.808594C4.18359 2.23828 4.78125 3.51562 5.48438 4.64062C6.21094 5.76562 6.76172 6.32812 7.13672 6.32812C7.27734 6.32812 7.37109 6.28125 7.41797 6.1875C7.48828 6.07031 7.52344 5.85938 7.52344 5.55469V2.49609C7.5 2.16797 7.44141 1.88672 7.34766 1.65234C7.25391 1.41797 7.16016 1.25391 7.06641 1.16016C6.97266 1.04297 6.87891 0.925781 6.78516 0.808594C6.71484 0.691406 6.67969 0.585938 6.67969 0.492188C6.67969 0.398437 6.70312 0.316406 6.75 0.246094C6.79688 0.175781 6.85547 0.117187 6.92578 0.0703125C7.01953 0.0234375 7.11328 0 7.20703 0H10.4766C10.8516 0 11.0391 0.257812 11.0391 0.773438V4.85156C11.0391 5.25 11.1445 5.44922 11.3555 5.44922C11.5898 5.44922 11.918 5.23828 12.3398 4.81641C12.7852 4.32422 13.2188 3.72656 13.6406 3.02344C14.0625 2.32031 14.3789 1.73437 14.5898 1.26562L14.9062 0.597656C15.0703 0.199219 15.3633 0 15.7852 0H17.8594C18.4219 0 18.6328 0.257812 18.4922 0.773438Z" fill="white"/>
</svg>
