<svg width="14" height="11" viewBox="0 0 14 11" fill="currentColor" xmlns="http://www.w3.org/2000/svg">
<path d="M0 10.3889C0 10.0514 0.223858 9.77778 0.5 9.77778H13.5C13.7761 9.77778 14 10.0514 14 10.3889C14 10.7264 13.7761 11 13.5 11H0.5C0.223857 11 0 10.7264 0 10.3889Z" fill="currentColor"/>
<path d="M0 5.5C0 5.16249 0.223858 4.88889 0.5 4.88889H13.5C13.7761 4.88889 14 5.16249 14 5.5C14 5.83751 13.7761 6.11111 13.5 6.11111H0.5C0.223857 6.11111 0 5.83751 0 5.5Z" fill="currentColor"/>
<path d="M0 0.611111C0 0.273604 0.223858 0 0.5 0H13.5C13.7761 0 14 0.273604 14 0.611111C14 0.948618 13.7761 1.22222 13.5 1.22222H0.5C0.223857 1.22222 0 0.948618 0 0.611111Z" fill="currentColor"/>
</svg>
