<svg width="10" height="18" viewBox="0 0 10 18" fill="none" xmlns="http://www.w3.org/2000/svg">
<path d="M9 10.125H6.36328V18H2.84766V10.125H0V6.85547H2.84766V4.39453C2.84766 3.45703 3.02344 2.66016 3.375 2.00391C3.72656 1.34766 4.21875 0.855469 4.85156 0.527344C5.50781 0.175781 6.25781 0 7.10156 0C7.47656 0 7.875 0.0234375 8.29688 0.0703125C8.71875 0.09375 9.04688 0.128906 9.28125 0.175781L9.63281 0.210938V2.98828H8.22656C7.57031 2.98828 7.08984 3.16406 6.78516 3.51562C6.50391 3.84375 6.36328 4.25391 6.36328 4.74609V6.85547H9.49219L9 10.125Z" fill="white"/>
</svg>
