<svg width="18" height="18" viewBox="0 0 18 18" fill="currentColor" xmlns="http://www.w3.org/2000/svg">
<path d="M17.1562 8.92969C17.1562 11.4141 16.3711 13.4531 14.8008 15.0469C13.2539 16.6406 11.2266 17.4375 8.71875 17.4375C6.30469 17.4375 4.24219 16.5938 2.53125 14.9062C0.84375 13.1953 0 11.1328 0 8.71875C0 6.30469 0.84375 4.25391 2.53125 2.56641C4.24219 0.855469 6.30469 0 8.71875 0C10.9922 0 12.9375 0.761719 14.5547 2.28516L12.1992 4.57031C11.4492 3.84375 10.5469 3.42187 9.49219 3.30469C8.46094 3.16406 7.48828 3.29297 6.57422 3.69141C5.68359 4.06641 4.91016 4.71094 4.25391 5.625C3.62109 6.51562 3.30469 7.54688 3.30469 8.71875C3.30469 10.2422 3.83203 11.543 4.88672 12.6211C5.94141 13.6992 7.21875 14.2383 8.71875 14.2383C9.53906 14.2383 10.2656 14.1094 10.8984 13.8516C11.5547 13.5703 12.0586 13.2305 12.4102 12.832C12.7852 12.4102 13.0664 12 13.2539 11.6016C13.4648 11.2031 13.6055 10.8281 13.6758 10.4766H8.71875V7.45312H17.0156C17.1094 7.96875 17.1562 8.46094 17.1562 8.92969Z" fill="currentColor"/>
</svg>
