<svg width="15" height="15" viewBox="0 0 15 15" fill="currentColor" xmlns="http://www.w3.org/2000/svg">
<g clip-path="url(#clip0_110_848)">
<path d="M8.29102 4.05713C8.29102 3.18478 7.58133 2.4751 6.70898 2.4751C5.83664 2.4751 5.12695 3.18478 5.12695 4.05713C5.12695 4.92947 5.83664 5.63916 6.70898 5.63916C7.58133 5.63916 8.29102 4.92947 8.29102 4.05713ZM5.71289 4.05713C5.71289 3.50787 6.15973 3.06103 6.70898 3.06103C7.25824 3.06103 7.70508 3.50787 7.70508 4.05713C7.70508 4.60638 7.25824 5.05322 6.70898 5.05322C6.15973 5.05322 5.71289 4.60638 5.71289 4.05713Z" fill="currentColor"/>
<path d="M4.15257 7.84527C4.529 7.65346 4.8082 7.32654 4.93878 6.92476C5.06933 6.52296 5.03561 6.09435 4.8438 5.71794C4.65199 5.34151 4.32507 5.06231 3.92329 4.93173C3.52146 4.80116 3.09287 4.83491 2.71647 5.02671C2.34003 5.21852 2.06083 5.54544 1.93025 5.94722C1.79971 6.34902 1.83343 6.77764 2.02523 7.15404C2.21704 7.53048 2.54397 7.80968 2.94574 7.94025C3.10664 7.99252 3.27179 8.01844 3.43617 8.01844C3.68235 8.01847 3.92684 7.96029 4.15257 7.84527ZM3.1268 7.383C2.87385 7.30082 2.66804 7.12504 2.54728 6.88806C2.42651 6.65107 2.40527 6.38125 2.48748 6.1283C2.56966 5.87535 2.74544 5.66954 2.98242 5.54878C3.12454 5.47636 3.27844 5.43974 3.43345 5.43974C3.53692 5.43974 3.64093 5.45609 3.74221 5.48899C3.99516 5.57116 4.20097 5.74694 4.32173 5.98393C4.44249 6.22091 4.46373 6.49073 4.38152 6.74368C4.29935 6.99663 4.12356 7.20244 3.88658 7.3232C3.64957 7.44393 3.37975 7.46517 3.1268 7.383Z" fill="currentColor"/>
<path d="M3.75553 11.5652C4.03573 11.7688 4.36092 11.8668 4.68328 11.8668C5.17289 11.8668 5.65605 11.6408 5.96519 11.2153C6.21357 10.8734 6.31394 10.4553 6.24782 10.0379C6.18169 9.62057 5.95705 9.25395 5.61518 9.0056C5.27332 8.75725 4.85528 8.65682 4.43786 8.72298C4.02049 8.78907 3.65387 9.01375 3.40552 9.35558C2.89286 10.0613 3.04986 11.0525 3.75553 11.5652ZM3.87961 9.7C4.03596 9.48475 4.26679 9.34331 4.52956 9.30168C4.58232 9.29333 4.63508 9.2892 4.6875 9.2892C4.89609 9.2892 5.09882 9.35468 5.27083 9.47966C5.71514 9.80248 5.81399 10.4266 5.49117 10.8709C5.16835 11.3152 4.54426 11.414 4.09995 11.0912C3.65563 10.7684 3.55678 10.1443 3.87961 9.7Z" fill="currentColor"/>
<path d="M8.73477 11.8668C9.05713 11.8668 9.38241 11.7687 9.66255 11.5652C10.3682 11.0525 10.5252 10.0612 10.0125 9.35556C9.76415 9.01372 9.39753 8.78905 8.98019 8.72295C8.56283 8.65686 8.14473 8.75723 7.80287 9.00558C7.461 9.25393 7.23635 9.62058 7.17023 10.0379C7.10411 10.4552 7.20451 10.8734 7.45286 11.2152C7.76206 11.6408 8.2451 11.8668 8.73477 11.8668ZM8.14725 9.47963C8.36247 9.32325 8.62561 9.25999 8.88849 9.30165C9.15126 9.34329 9.38209 9.48473 9.53844 9.69998C9.86127 10.1443 9.76242 10.7684 9.3181 11.0912C8.87379 11.414 8.24967 11.3152 7.92688 10.8709C7.60409 10.4265 7.70294 9.80243 8.14725 9.47963Z" fill="currentColor"/>
<path d="M9.49457 4.93168C9.09277 5.06226 8.76584 5.34146 8.57406 5.7179C8.38226 6.09433 8.34854 6.52292 8.47908 6.92472C8.60966 7.32653 8.88886 7.65345 9.26529 7.84523C9.49103 7.96025 9.73548 8.01843 9.98169 8.01843C10.1461 8.01843 10.3113 7.99248 10.4721 7.94024C10.8739 7.80967 11.2009 7.53047 11.3926 7.15403C11.5844 6.77759 11.6182 6.34901 11.4876 5.9472C11.357 5.5454 11.0778 5.21847 10.7014 5.02669C10.325 4.83489 9.89638 4.8012 9.49457 4.93168ZM10.4354 5.54876C10.6724 5.66953 10.8482 5.87531 10.9304 6.12829C11.0126 6.38124 10.9913 6.65106 10.8706 6.88804C10.7498 7.12503 10.544 7.30081 10.291 7.38299C10.0381 7.46516 9.76826 7.44395 9.53128 7.32319C9.2943 7.20243 9.11852 6.99665 9.03634 6.74367C8.95413 6.49072 8.97537 6.22089 9.09613 5.98391C9.2169 5.74693 9.42268 5.57115 9.67566 5.48897C9.77694 5.45604 9.88091 5.43972 9.98442 5.43972C10.1394 5.43972 10.2933 5.47634 10.4354 5.54876Z" fill="currentColor"/>
<path d="M7.7134 7.49977C7.7134 6.94579 7.26273 6.49512 6.70875 6.49512C6.15478 6.49512 5.7041 6.94579 5.7041 7.49977C5.7041 8.05375 6.15478 8.50442 6.70875 8.50442C7.26273 8.50442 7.7134 8.05375 7.7134 7.49977ZM6.29004 7.49977C6.29004 7.26888 6.47786 7.08106 6.70875 7.08106C6.93964 7.08106 7.12746 7.26888 7.12746 7.49977C7.12746 7.73066 6.93964 7.91848 6.70875 7.91848C6.47786 7.91848 6.29004 7.73066 6.29004 7.49977Z" fill="currentColor"/>
<path d="M14.9142 12.942C14.5829 12.6108 14.1425 12.4283 13.6739 12.4283C13.2054 12.4283 12.765 12.6108 12.4337 12.942C11.9945 13.3812 11.4107 13.623 10.7896 13.623H9.45899C10.1924 13.2933 10.8673 12.8296 11.4529 12.244C12.7201 10.9768 13.418 9.29203 13.418 7.5C13.418 6.18926 13.0399 4.91938 12.3245 3.82767C12.2359 3.69231 12.0542 3.65449 11.9189 3.74317C11.7836 3.83186 11.7457 4.01347 11.8344 4.14879C12.4871 5.14482 12.832 6.30366 12.832 7.5C12.832 10.8763 10.0852 13.623 6.70898 13.623C3.33272 13.623 0.585937 10.8763 0.585937 7.5C0.585937 4.12374 3.33272 1.37695 6.70898 1.37695C7.90734 1.37695 9.06785 1.72301 10.065 2.37773C10.2002 2.46656 10.3819 2.42892 10.4707 2.29362C10.5595 2.15836 10.5219 1.97675 10.3866 1.88792C9.29364 1.17032 8.02192 0.791016 6.70898 0.791016C4.91695 0.791016 3.23218 1.48887 1.96503 2.75604C0.697881 4.02322 0 5.70797 0 7.5C0 9.29203 0.697852 10.9768 1.96503 12.244C3.23218 13.5111 4.91695 14.209 6.70898 14.209H10.7896C11.5672 14.209 12.2982 13.9062 12.848 13.3564C13.0686 13.1358 13.362 13.0142 13.6739 13.0142C13.9859 13.0142 14.2792 13.1357 14.4998 13.3564C14.6142 13.4708 14.7998 13.4708 14.9142 13.3564C15.0286 13.242 15.0286 13.0564 14.9142 12.942Z" fill="currentColor"/>
<path d="M11.248 3.25801C11.3251 3.25801 11.4007 3.22695 11.4552 3.17246C11.5097 3.11768 11.541 3.04238 11.541 2.96533C11.541 2.88799 11.5097 2.8127 11.4552 2.75791C11.4007 2.70342 11.3251 2.67236 11.248 2.67236C11.171 2.67236 11.0954 2.70342 11.0409 2.75791C10.9864 2.8127 10.9551 2.88799 10.9551 2.96533C10.9551 3.04238 10.9864 3.11797 11.0409 3.17246C11.0954 3.22695 11.171 3.25801 11.248 3.25801Z" fill="currentColor"/>
</g>
<defs>
<clipPath id="clip0_110_848">
<rect width="15" height="15" fill="currentColor"/>
</clipPath>
</defs>
</svg>
