<svg width="18" height="15" viewBox="0 0 18 15" fill="currentColor" xmlns="http://www.w3.org/2000/svg">
<path d="M16.1367 3.65625C16.1602 3.75 16.1719 3.90234 16.1719 4.11328C16.1719 5.35547 15.9375 6.59766 15.4688 7.83984C15 9.05859 14.332 10.1836 13.4648 11.2148C12.6211 12.2227 11.5195 13.043 10.1602 13.6758C8.80078 14.3086 7.30078 14.625 5.66016 14.625C3.59766 14.625 1.71094 14.0742 0 12.9727C0.257812 12.9961 0.550781 13.0078 0.878906 13.0078C2.58984 13.0078 4.125 12.4805 5.48438 11.4258C4.66406 11.4258 3.9375 11.1914 3.30469 10.7227C2.69531 10.2305 2.27344 9.62109 2.03906 8.89453C2.27344 8.91797 2.49609 8.92969 2.70703 8.92969C3.03516 8.92969 3.36328 8.89453 3.69141 8.82422C3.12891 8.70703 2.625 8.47266 2.17969 8.12109C1.73438 7.76953 1.38281 7.34766 1.125 6.85547C0.867188 6.33984 0.738281 5.78906 0.738281 5.20312V5.13281C1.25391 5.4375 1.80469 5.60156 2.39062 5.625C1.28906 4.875 0.738281 3.84375 0.738281 2.53125C0.738281 1.875 0.914062 1.25391 1.26562 0.667969C2.17969 1.81641 3.29297 2.73047 4.60547 3.41016C5.94141 4.08984 7.35938 4.46484 8.85938 4.53516C8.8125 4.25391 8.78906 3.97266 8.78906 3.69141C8.78906 2.68359 9.14062 1.81641 9.84375 1.08984C10.5703 0.363281 11.4375 0 12.4453 0C13.5234 0 14.4258 0.386719 15.1523 1.16016C15.9961 0.996094 16.7812 0.703125 17.5078 0.28125C17.2266 1.14844 16.6875 1.82812 15.8906 2.32031C16.5938 2.22656 17.2969 2.02734 18 1.72266C17.4844 2.47266 16.8633 3.11719 16.1367 3.65625Z" fill="currentColor"/>
</svg>
